<svg class="svg-icon" style="width: 1em;height: 1em;vertical-align: middle;fill: currentColor;overflow: hidden;" viewBox="0 0 1024 1024" version="1.1" xmlns="http://www.w3.org/2000/svg"><path d="M511.793798 512m-511.793798 0a511.793798 511.793798 0 1 0 1023.587596 0 511.793798 511.793798 0 1 0-1023.587596 0Z" fill="#FDBF5E" /><path d="M730.98671 510.350383H762.948047v30.311719h-31.961337zM823.777688 510.350383H855.739025v30.311719h-31.961337zM918.012082 510.350383h31.961337v30.311719h-31.961337zM276.723319 358.37938h30.311719v31.961337h-30.311719zM276.723319 440.035441h30.311719v31.961337h-30.311719zM276.723319 520.041885h30.311719v31.961337h-30.311719z" fill="#193651" /><path d="M956.571889 852.645993H190.324607c-9.691502 0-16.08377-6.392267-16.083769-16.08377V70.521144c0-9.691502 6.392267-16.08377 16.083769-16.08377s16.08377 6.392267 16.08377 16.08377V820.684656h750.163512c9.691502 0 16.08377 6.392267 16.083769 16.083769 0 9.691502-8.248087 15.877567-16.083769 15.877568z" fill="#193651" /><path d="M884.60733 847.903343l-44.952074-44.745872c-6.392267-6.392267-6.392267-16.08377 0-22.476037 6.392267-6.392267 16.08377-6.392267 22.476037 0l44.745872 44.745872c6.392267 6.392267 6.392267 16.08377 0 22.476037-4.74265 6.392267-15.877567 6.392267-22.269835 0z m-89.697946-89.491744l-44.745872-44.745872c-6.392267-6.392267-6.392267-16.08377 0-22.476037 6.392267-6.392267 16.08377-6.392267 22.476037 0l44.745872 44.745872c6.392267 6.392267 6.392267 16.08377 0 22.476037-6.392267 6.392267-16.08377 6.392267-22.476037 0z m-91.141361-91.347564l-44.745872-44.745871c-6.392267-6.392267-6.392267-16.08377 0-22.476038 6.392267-6.392267 16.08377-6.392267 22.476037 0l44.745872 44.745872c6.392267 6.392267 6.392267 16.08377 0 22.476037-6.59847 6.59847-16.08377 6.59847-22.476037 0z m-89.697946-89.491743l-44.745872-44.745872c-6.392267-6.392267-6.392267-16.08377 0-22.476037 6.392267-6.392267 16.08377-6.392267 22.476037 0l44.745872 44.745872c6.392267 6.392267 6.392267 16.08377 0 22.476037-6.392267 4.74265-15.877567 4.74265-22.476037 0z m-91.141362-91.141362l-44.745872-44.745872c-6.392267-6.392267-6.392267-16.08377 0-22.476037s16.08377-6.392267 22.476037 0l44.745872 44.745872c6.392267 6.392267 6.392267 16.08377 0 22.476037s-16.08377 6.392267-22.476037 0z m-91.141361-91.141361L387.041482 350.543697c-6.392267-6.392267-6.392267-16.08377 0-22.476037s16.08377-6.392267 22.476037 0l44.745872 44.745872c6.392267 6.392267 6.392267 16.08377 0 22.476037-4.948852 6.392267-16.08377 6.392267-22.476037 0zM342.29561 305.591623l-44.952074-44.745872c-6.392267-6.392267-6.392267-16.08377 0-22.476037s16.08377-6.392267 22.476037 0l44.745872 44.745872c6.392267 6.392267 6.392267 16.08377 0 22.476037s-15.877567 6.392267-22.269835 0zM251.154249 214.450262L206.202175 169.70439c-6.392267-6.392267-6.392267-16.08377 0-22.476037s16.08377-6.392267 22.476037 0l44.745872 44.745872c6.392267 6.392267 6.392267 16.08377 0 22.476037-4.74265 6.392267-15.877567 6.392267-22.269835 0zM302.292388 852.645993H190.324607c-9.691502 0-16.08377-6.392267-16.083769-16.08377v-111.967781c0-9.691502 6.392267-16.08377 16.083769-16.083769h111.967781c9.691502 0 16.08377 6.392267 16.08377 16.083769v111.967781c-0.206202 9.691502-6.59847 16.08377-16.08377 16.08377zM206.202175 820.684656h80.006444v-80.006444H206.202175V820.684656z" fill="#193651" /><path d="M361.472412 852.645993c-4.74265 0-8.041885-1.649617-11.134917-4.74265-6.392267-6.392267-6.392267-16.08377 0-22.476037 19.176802-19.176802 30.31172-46.395489 30.31172-73.614177 0-28.868304-11.134917-54.437374-30.31172-73.614176-41.652839-41.652839-107.225131-41.652839-148.671768 0-6.392267 6.392267-16.08377 6.392267-22.476037 0-6.392267-6.392267-6.392267-16.08377 0-22.476037 52.787757-52.787757 140.836085-52.787757 193.623842 0 52.787757 52.787757 52.787757 140.836085 0 193.623842-3.299235 1.85582-8.248087 3.299235-11.34112 3.299235zM38.353605 515.299235l-12.784535 28.868304H4.74265l54.437374-123.102698h20.82642l54.437374 123.102698H111.967781l-12.784535-27.218687H38.353605v-1.649617z m52.787756-19.383005l-22.476037-51.138139-22.476037 51.138139h44.952074zM511.793798 1023.793798h-54.437374v-123.102699h48.045106c8.041885 0 16.08377 0.824809 20.82642 2.268224 6.392267 1.85582 11.959726 4.74265 14.021748 7.629481 5.361257 7.423278 6.59847 14.22795 6.59847 22.269835 0 9.691502-3.505437 15.465163-9.691503 20.826419-1.649617 1.443415-3.505437 2.474426-4.74265 3.299235-1.031011 0.618607-2.474426 1.031011-4.74265 1.649618 8.041885 1.649617 14.021748 5.155054 17.527185 9.691502 4.330246 5.155054 6.392267 11.134917 6.392268 19.176802 0 11.134917-1.85582 18.145791-7.010874 24.950463-6.59847 8.660491-15.258961 11.34112-32.786146 11.34112z m-31.961337-71.964559h27.218687c14.434152 0 22.476037-4.74265 22.476037-16.08377 0-6.392267-1.649617-9.691502-4.74265-12.784535-3.093033-3.093033-9.691502-3.299235-17.527185-3.299234h-27.218687v32.167539h-0.206202z m0 52.787757h31.961337c8.041885 0 12.990737-1.031011 17.527185-3.299235 5.155054-2.474426 6.392267-6.392267 6.392267-14.434152 0-11.134917-8.041885-16.08377-25.56907-16.08377h-30.311719v33.817157zM543.755135 636.752316l-70.314942-78.356827c-6.392267-6.392267-4.74265-16.08377 1.649618-22.476037 6.392267-6.392267 16.08377-4.74265 22.476037 1.649618l52.787757 57.530406 54.437374-150.321385c1.649617-6.392267 8.041885-11.134917 14.434152-11.134917h388.691099c9.691502 0 16.08377 6.392267 16.08377 16.083769s-6.392267 16.08377-16.08377 16.08377H630.153846l-59.180024 164.755538c-1.649617 4.74265-6.392267 9.691502-11.134917 9.691502-6.392267 2.88683-12.784535 1.237213-16.08377-3.505437zM447.871124 225.585179c-6.392267-6.392267-6.392267-16.08377 0-22.476037l76.707209-76.707209c6.392267-6.392267 16.08377-6.392267 22.476037 0 6.392267 6.392267 6.392267 16.08377 0 22.476037l-76.707209 76.707209c-6.59847 6.392267-16.08377 6.392267-22.476037 0z" fill="#193651" /><path d="M522.928715 225.585179l-75.057591-76.707209c-6.392267-6.392267-6.392267-16.08377 0-22.476037s16.08377-6.392267 22.476037 0l76.707209 76.707209c6.392267 6.392267 6.392267 16.08377 0 22.476037-6.392267 6.392267-17.733387 6.392267-24.125655 0zM775.732582 363.328232c-6.392267-6.392267-6.392267-16.08377 0-22.476037l76.707209-76.707209c6.392267-6.392267 16.08377-6.392267 22.476037 0 6.392267 6.392267 6.392267 16.08377 0 22.476037l-76.707209 76.707209c-6.392267 6.392267-16.08377 6.392267-22.476037 0z" fill="#193651" /><path d="M852.439791 363.328232l-76.707209-76.913411c-6.392267-6.392267-6.392267-16.08377 0-22.476037 6.392267-6.392267 16.08377-6.392267 22.476037 0l76.707209 76.707209c6.392267 6.392267 6.392267 16.08377 0 22.476037-6.392267 6.59847-17.527185 6.59847-22.476037 0.206202z" fill="#193651" /></svg>