<svg class="svg-icon" style="width: 1em; height: 1em;vertical-align: middle;fill: currentColor;overflow: hidden;" viewBox="0 0 1024 1024" version="1.1" xmlns="http://www.w3.org/2000/svg"><path d="M675.983038 510.116238 675.983038 109.545523 597.567473 109.545523l18.262908-102.202045L380.136692 7.343477 393.865802 109.545523 311.299576 109.545523l0 400.123722c-82.406585 65.772013-219.729608 221.421801-219.729608 343.259666l0 12.994762c0 158.076328 135.503118 158.076328 234.384635 158.076328l33.237216-0.031928 338.725867 0.031928c60.376154 0 113.696184-1.532552 155.745572-20.306311 52.170616-23.27563 78.607134-69.635321 78.607134-137.770017l0-12.994762C932.30232 747.597905 837.731105 620.364181 675.983038 510.116238zM859.059117 865.9556c0 48.562734-16.889998 62.802694-35.184834 71.04016-28.863058 12.835121-75.957097 13.920678-125.924669 13.920678l-338.725867-0.031928-33.141432 0.031928c-132.661512 0-161.237216-15.070092-161.237216-84.960838l0-12.994762c0-89.175355 123.083063-236.906959 204.372163-295.495136l15.357446-10.983288L384.574707 182.820654l19.156897 0 4.948865 36.621601 169.283113 0 6.577201-36.621601 18.199052 0 0 366.407583 16.634572 10.855575c145.464704 96.167623 239.684709 211.109005 239.684709 292.845099L859.059117 865.9556z"  /><path d="M575.92018 585.626341 405.35994 585.626341c0 0-231.574956 166.601147-176.754303 282.372662 0 0 20.561736 24.520828 84.162634 23.499127 49.999501-0.798204 445.940634 0.925917 445.940634 0.925917s79.980045 0.159641 48.786231-63.632826C790.06236 793.223248 715.318533 640.542779 575.92018 585.626341z"  /><path d="M526.559242 476.719381m-28.575705 0a0.895 0.895 0 1 0 57.151409 0 0.895 0.895 0 1 0-57.151409 0Z"  /><path d="M445.685208 354.46645m-22.860564 0a0.716 0.716 0 1 0 45.721127 0 0.716 0.716 0 1 0-45.721127 0Z"  /><path d="M505.103517 272.187578m-20.561736 0a0.644 0.644 0 1 0 41.123472 0 0.644 0.644 0 1 0-41.123472 0Z"  /></svg>